<svg width="44" height="55" viewBox="0 0 44 55" fill="none" xmlns="http://www.w3.org/2000/svg">
<path d="M21.9757 0C9.85836 0 0 9.11691 0 20.3233C0 31.1728 20.0341 53.5793 20.8869 54.5277C21.1559 54.8268 21.5549 55 21.9757 55C22.3964 55 22.7955 54.827 23.0645 54.5277C23.9175 53.5791 43.9514 31.1728 43.9514 20.3233C43.9514 9.11691 34.0933 0 21.9757 0ZM21.9757 51.6123C20.1993 49.5609 16.5085 45.1903 12.8561 40.1938C6.29836 31.2229 2.83199 24.3517 2.83199 20.3233C2.83199 10.561 11.4199 2.61905 21.9757 2.61905C32.5315 2.61905 41.1194 10.561 41.1194 20.3233C41.1194 24.3516 37.6533 31.2227 31.0953 40.1938C27.4428 45.1903 23.7521 49.5609 21.9757 51.6123Z" fill="white"/>
<path d="M29.1797 37.3576C28.5318 36.9527 27.6514 37.1105 27.2137 37.7097C25.3029 40.3256 23.1623 43.0673 20.8514 45.8585C20.376 46.4327 20.4938 47.2546 21.1148 47.6943C21.3715 47.8762 21.6742 47.9642 21.9746 47.9642C22.4001 47.9642 22.8211 47.7873 23.0998 47.4507C25.4447 44.6186 27.6183 41.8346 29.5603 39.1759C29.9982 38.5766 29.8279 37.7625 29.1797 37.3576Z" fill="white"/>
<path d="M21.9758 10.0398C15.5734 10.0398 10.3646 14.8569 10.3646 20.7779C10.3646 26.6989 15.5734 31.516 21.9758 31.516C28.3782 31.516 33.587 26.6989 33.587 20.7779C33.587 14.8569 28.3782 10.0398 21.9758 10.0398ZM21.9758 28.8969C17.135 28.8969 13.1966 25.2547 13.1966 20.7779C13.1966 16.3011 17.135 12.6588 21.9758 12.6588C26.8168 12.6588 30.755 16.3011 30.755 20.7779C30.755 25.2547 26.8168 28.8969 21.9758 28.8969Z" fill="white"/>
</svg>
