<svg width="50" height="50" viewBox="0 0 50 50" fill="none" xmlns="http://www.w3.org/2000/svg">
<path d="M36.9975 28.7305C36.9001 28.6837 33.255 26.8888 32.6072 26.6557C32.3428 26.5607 32.0595 26.468 31.7582 26.468C31.266 26.468 30.8525 26.7133 30.5305 27.1951C30.1663 27.7363 29.0641 29.0248 28.7235 29.4097C28.679 29.4605 28.6183 29.5212 28.5819 29.5212C28.5493 29.5212 27.9852 29.2889 27.8144 29.2148C23.9042 27.5162 20.9361 23.4316 20.5292 22.7428C20.471 22.6438 20.4686 22.5988 20.4681 22.5988C20.4824 22.5464 20.6139 22.4146 20.6818 22.3466C20.8803 22.1501 21.0954 21.8912 21.3035 21.6407C21.402 21.5221 21.5007 21.4032 21.5977 21.2912C21.8996 20.9399 22.034 20.6672 22.1899 20.3513L22.2715 20.1872C22.652 19.4311 22.327 18.7932 22.222 18.5872C22.1358 18.4148 20.5967 14.7001 20.4331 14.3099C20.0395 13.3682 19.5196 12.9297 18.797 12.9297C18.73 12.9297 18.797 12.9297 18.5158 12.9415C18.1735 12.956 16.309 13.2014 15.4847 13.7211C14.6105 14.2722 13.1316 16.029 13.1316 19.1186C13.1316 21.8993 14.8962 24.5248 15.6538 25.5234C15.6727 25.5485 15.7072 25.5997 15.7574 25.673C18.6589 29.9104 22.2759 33.0506 25.9426 34.5154C29.4727 35.9255 31.1443 36.0885 32.0946 36.0885C32.0947 36.0885 32.0947 36.0885 32.0947 36.0885C32.4941 36.0885 32.8137 36.0571 33.0957 36.0294L33.2746 36.0123C34.4941 35.9042 37.174 34.5156 37.7835 32.8216C38.2637 31.4873 38.3904 30.0295 38.0709 29.5005C37.852 29.1407 37.4749 28.9597 36.9975 28.7305Z" fill="white"/>
<path d="M25.444 0C11.9025 0 0.885596 10.9341 0.885596 24.3739C0.885596 28.7208 2.04891 32.9758 4.25264 36.6998L0.034622 49.1422C-0.0439494 49.3742 0.0144921 49.6307 0.186083 49.8054C0.309947 49.9318 0.477966 50 0.649557 50C0.715304 50 0.781538 49.9901 0.846148 49.9695L13.8202 45.8468C17.3705 47.7437 21.3832 48.745 25.4442 48.745C38.9845 48.7451 50.0002 37.8122 50.0002 24.3739C50.0002 10.9341 38.9845 0 25.444 0ZM25.444 43.6679C21.6228 43.6679 17.9216 42.5644 14.7401 40.4768C14.6332 40.4065 14.509 40.3705 14.384 40.3705C14.3179 40.3705 14.2517 40.3805 14.1872 40.401L7.68803 42.4669L9.78608 36.2771C9.85394 36.0768 9.82001 35.8558 9.69501 35.6851C7.27228 32.3747 5.9916 28.4635 5.9916 24.3739C5.9916 13.7338 14.7179 5.07727 25.4439 5.07727C36.1686 5.07727 44.8939 13.7338 44.8939 24.3739C44.894 35.0127 36.1689 43.6679 25.444 43.6679Z" fill="white"/>
</svg>
