<svg width="50" height="50" viewBox="0 0 50 50" fill="none" xmlns="http://www.w3.org/2000/svg">
<path d="M10 0C4.47692 0 0 4.47692 0 10V40C0 45.5231 4.47692 50 10 50H40C45.5223 50 50 45.5231 50 40V10C50 4.47692 45.5231 0 40 0H10ZM10 1.53846H40C44.6731 1.53846 48.4615 5.32692 48.4615 10V40C48.4615 44.6731 44.6731 48.4615 40 48.4615H10C5.32692 48.4615 1.53846 44.6731 1.53846 40V10C1.53846 5.32692 5.32615 1.53846 10 1.53846ZM12.183 3.84615C7.57915 3.84615 3.84615 7.57764 3.84615 12.1815V37.817C3.84615 42.4209 7.57915 46.1538 12.183 46.1538H37.817C42.4209 46.1538 46.1538 42.4216 46.1538 37.817V23.4615C46.1538 23.2492 45.9815 23.0769 45.7692 23.0769C45.5569 23.0769 45.3846 23.2492 45.3846 23.4615V37.817C45.3846 41.9962 41.9962 45.3846 37.817 45.3846H12.183C8.00376 45.3846 4.61538 41.9962 4.61538 37.817V12.1815C4.61538 8.00226 8.00376 4.61538 12.183 4.61538H38.0769C38.2892 4.61538 38.4615 4.44308 38.4615 4.23077C38.4615 4.01846 38.2892 3.84615 38.0769 3.84615H12.183ZM25.3846 10.7782C17.5377 10.7782 11.1538 17.1621 11.1538 25.009C11.1538 26.2113 11.3053 27.409 11.6046 28.5667C11.7415 29.0982 11.9123 29.6303 12.1139 30.1487C12.3708 30.8118 12.6802 31.46 13.0379 32.0823L11.1689 38.7515C11.1319 38.8823 11.1674 39.0249 11.262 39.1226C11.3351 39.198 11.4354 39.2398 11.5385 39.2398C11.5692 39.2398 11.5993 39.2355 11.6301 39.2278L13.5532 38.7515C13.7593 38.7007 13.8849 38.4926 13.8341 38.2873C13.7834 38.0819 13.576 37.9548 13.3699 38.0063L12.0868 38.3233L13.8221 32.1334C13.8506 32.0326 13.8361 31.9244 13.7831 31.8344C13.4123 31.2052 13.0928 30.5439 12.8305 29.8693C12.6405 29.3793 12.479 28.8767 12.3498 28.3744C12.0675 27.279 11.9231 26.1467 11.9231 25.009C11.9231 17.5867 17.9623 11.5475 25.3846 11.5475C32.8069 11.5475 38.8462 17.5867 38.8462 25.009C38.8462 32.4313 32.8069 38.4706 25.3846 38.4706C23.0892 38.4706 20.819 37.8792 18.8221 36.7623C18.7367 36.7146 18.6396 36.7017 18.5427 36.7248L17.216 37.0523C17.0107 37.1031 16.8843 37.3111 16.9351 37.518C16.9859 37.7226 17.1901 37.8467 17.3993 37.799L18.5802 37.506C20.6595 38.6406 23.0092 39.2398 25.3846 39.2398C33.2315 39.2398 39.6154 32.8559 39.6154 25.009C39.6154 17.1621 33.2315 10.7782 25.3846 10.7782ZM45.7692 14.2909C45.5569 14.2909 45.3846 14.4632 45.3846 14.6755V16.2139C45.3846 16.4263 45.5569 16.5986 45.7692 16.5986C45.9815 16.5986 46.1538 16.427 46.1538 16.2139V14.6755C46.1538 14.4632 45.9815 14.2909 45.7692 14.2909ZM45.7692 17.3678C45.5569 17.3678 45.3846 17.5401 45.3846 17.7524V20.8293C45.3846 21.0416 45.5569 21.2139 45.7692 21.2139C45.9815 21.2139 46.1538 21.0424 46.1538 20.8293V17.7524C46.1538 17.5401 45.9815 17.3678 45.7692 17.3678ZM20.4117 17.7013C20.1886 17.7013 19.6149 17.7595 19.1211 18.2918L19.0505 18.3654C18.6436 18.7931 17.6923 19.7938 17.6923 21.6707C17.6923 23.4284 18.8226 25.1169 19.3164 25.7707L19.3765 25.8549C20.4665 27.3956 22.7683 30.1831 25.9375 31.5355C26.8167 31.9093 27.511 32.1409 28.131 32.3347C28.7095 32.517 29.2477 32.5751 29.713 32.5751C30.09 32.5751 30.4204 32.537 30.6881 32.4985C31.4812 32.3808 33.1687 31.5218 33.5487 30.4703C33.8556 29.6195 33.9388 28.6931 33.7365 28.3639C33.6003 28.14 33.359 28.0247 33.0544 27.8801L32.8516 27.7825C32.6362 27.6748 30.6261 26.6913 30.2254 26.549C29.9215 26.439 29.3597 26.2379 28.9243 26.884C28.6997 27.2163 28.04 27.9883 27.7554 28.3098C27.6716 28.4036 27.6441 28.4359 27.3948 28.3128C27.3279 28.2797 27.2367 28.2403 27.1244 28.1926C26.5906 27.9634 25.5966 27.5375 24.4351 26.5144C23.3905 25.5944 22.6677 24.4628 22.4053 24.0189C22.3346 23.8989 22.3344 23.8983 22.5105 23.7245C22.6313 23.6068 22.7695 23.4414 22.9072 23.2752L23.098 23.0484C23.2933 22.8238 23.3803 22.6498 23.4811 22.4459L23.5306 22.3438C23.7676 21.8738 23.5645 21.4739 23.4991 21.3447C23.4437 21.2323 23.0543 20.2977 22.7704 19.6154L22.3438 18.5922C22.0168 17.8176 21.5984 17.7325 21.1553 17.7163C20.9292 17.7048 20.6701 17.7013 20.4117 17.7013ZM20.4117 18.4706C20.6578 18.4706 20.9024 18.4733 21.1163 18.4826L21.223 18.4841C21.3614 18.4864 21.4608 18.482 21.6331 18.8897L22.0598 19.9099C22.4729 20.9014 22.7472 21.5602 22.811 21.6887C22.8902 21.8449 22.8825 21.9167 22.8425 21.9967L22.79 22.1034C22.7007 22.2834 22.6473 22.3928 22.518 22.5421L22.3152 22.7809C22.1952 22.9263 22.0743 23.0707 21.9697 23.1746C21.7897 23.353 21.3674 23.7696 21.7428 24.4081C22.0236 24.8842 22.7989 26.0968 23.9258 27.0898C25.1796 28.1952 26.2886 28.6703 26.8209 28.8987C26.9171 28.9403 26.9969 28.9724 27.0538 29.0009C27.3892 29.1663 27.8824 29.3245 28.3308 28.8176C28.5654 28.5515 29.2952 27.706 29.5598 27.3137C29.6575 27.1683 29.6601 27.1631 29.9639 27.2731C30.2632 27.3793 32.0105 28.2236 32.5105 28.4721L32.7224 28.5742C32.8647 28.6427 33.0442 28.7282 33.0604 28.729C33.1004 28.8605 33.0899 29.4719 32.823 30.2088C32.5799 30.8811 31.2486 31.636 30.5724 31.7353C30.0509 31.813 29.2548 31.8816 28.3594 31.6001C27.7586 31.4124 27.0857 31.1894 26.238 30.8278C23.2434 29.5501 21.0476 26.8863 20.0045 25.4117L19.9219 25.296C19.4834 24.7137 18.4615 23.1953 18.4615 21.6707C18.4615 20.1007 19.2363 19.2873 19.6079 18.8957L19.6845 18.8146C19.9814 18.4946 20.3163 18.4706 20.4117 18.4706ZM15.8308 37.4264C15.7815 37.4186 15.7297 37.4206 15.6776 37.4339L14.9084 37.6247C14.7022 37.6747 14.5766 37.8828 14.6274 38.0889C14.6697 38.2651 14.8262 38.3819 15 38.3819C15.03 38.3819 15.0609 38.3776 15.0916 38.3699L15.8609 38.1806C16.067 38.1298 16.1926 37.921 16.1418 37.7148C16.1032 37.5608 15.979 37.4497 15.8308 37.4264Z" fill="white"/>
</svg>
