<svg width="50" height="50" viewBox="0 0 50 50" fill="none" xmlns="http://www.w3.org/2000/svg">
<path d="M36.9974 28.7307C36.9 28.684 33.2548 26.889 32.6071 26.6559C32.3427 26.5609 32.0594 26.4682 31.7581 26.4682C31.2659 26.4682 30.8524 26.7135 30.5303 27.1954C30.1662 27.7366 29.0639 29.0251 28.7234 29.41C28.6789 29.4608 28.6182 29.5215 28.5818 29.5215C28.5492 29.5215 27.985 29.2892 27.8143 29.215C23.904 27.5165 20.936 23.4319 20.529 22.7431C20.4709 22.6441 20.4685 22.5991 20.468 22.5991C20.4823 22.5467 20.6138 22.4148 20.6816 22.3468C20.8802 22.1504 21.0953 21.8915 21.3034 21.641C21.4019 21.5223 21.5006 21.4035 21.5975 21.2915C21.8995 20.9402 22.0339 20.6674 22.1897 20.3515L22.2714 20.1874C22.6519 19.4314 22.3269 18.7934 22.2219 18.5874C22.1357 18.415 20.5966 14.7004 20.4329 14.3101C20.0394 13.3684 19.5195 12.9299 18.7969 12.9299C18.7298 12.9299 18.7969 12.9299 18.5157 12.9418C18.1734 12.9562 16.3089 13.2017 15.4846 13.7213C14.6104 14.2725 13.1315 16.0293 13.1315 19.1189C13.1315 21.8996 14.8961 24.5251 15.6537 25.5236C15.6725 25.5488 15.7071 25.5999 15.7573 25.6733C18.6587 29.9106 22.2758 33.0509 25.9425 34.5156C29.4725 35.9257 31.1441 36.0887 32.0945 36.0887C32.0946 36.0887 32.0946 36.0887 32.0946 36.0887C32.494 36.0887 32.8136 36.0574 33.0956 36.0296L33.2745 36.0126C34.494 35.9044 37.1738 34.5158 37.7834 32.8218C38.2636 31.4876 38.3902 30.0298 38.0708 29.5007C37.8519 29.141 37.4748 28.96 36.9974 28.7307Z" fill="white"/>
<path d="M25.444 0C11.9025 0 0.885596 10.9341 0.885596 24.3739C0.885596 28.7208 2.04891 32.9758 4.25264 36.6998L0.034622 49.1422C-0.0439494 49.3742 0.0144921 49.6307 0.186083 49.8054C0.309947 49.9318 0.477966 50 0.649557 50C0.715304 50 0.781538 49.9901 0.846148 49.9695L13.8202 45.8468C17.3705 47.7437 21.3832 48.745 25.4442 48.745C38.9845 48.7451 50.0002 37.8122 50.0002 24.3739C50.0002 10.9341 38.9845 0 25.444 0ZM25.444 43.6679C21.6228 43.6679 17.9216 42.5644 14.7401 40.4768C14.6332 40.4065 14.509 40.3705 14.384 40.3705C14.3179 40.3705 14.2517 40.3805 14.1872 40.401L7.68803 42.4669L9.78608 36.2771C9.85394 36.0768 9.82001 35.8558 9.69501 35.6851C7.27228 32.3747 5.9916 28.4635 5.9916 24.3739C5.9916 13.7338 14.7179 5.07727 25.4439 5.07727C36.1686 5.07727 44.8939 13.7338 44.8939 24.3739C44.894 35.0127 36.1689 43.6679 25.444 43.6679Z" fill="white"/>
</svg>
